<?xml version="1.0" standalone="no"?>
<!DOCTYPE svg PUBLIC "-//W3C//DTD SVG 20010904//EN"
 "http://www.w3.org/TR/2001/REC-SVG-20010904/DTD/svg10.dtd">
<svg version="1.0" xmlns="http://www.w3.org/2000/svg"
 width="642.000000pt" height="770.000000pt" viewBox="0 0 642.000000 770.000000"
 preserveAspectRatio="xMidYMid meet">

<g transform="translate(0.000000,770.000000) scale(0.100000,-0.100000)"
fill="#000000" stroke="none">
<path d="M73 7674 c-17 -9 -39 -31 -47 -49 -14 -30 -16 -395 -16 -3780 0
-3514 1 -3749 17 -3776 38 -64 -226 -59 3188 -59 2858 0 3109 1 3135 16 15 9
35 29 44 44 15 26 16 325 16 3780 0 3455 -1 3754 -16 3780 -9 15 -29 35 -44
44 -26 15 -277 16 -3137 16 -2802 0 -3111 -2 -3140 -16z m2183 -413 c85 -39
123 -107 124 -222 0 -151 -80 -239 -220 -239 -141 0 -220 87 -220 242 1 110
44 188 125 224 44 20 142 17 191 -5z m894 -31 l0 -40 -50 0 -50 0 0 40 0 40
50 0 50 0 0 -40z m1376 -2 c45 -50 46 -93 4 -142 -29 -33 -30 -35 -11 -41 82
-26 80 -165 -2 -215 -28 -17 -51 -20 -179 -20 l-148 0 0 231 0 230 151 -3 151
-3 34 -37z m-1596 -23 c0 -54 0 -55 30 -55 28 0 30 -3 30 -35 0 -32 -2 -35
-30 -35 l-31 0 3 -102 3 -103 26 2 c23 1 28 -3 32 -30 5 -39 -5 -47 -61 -47
-32 0 -49 6 -67 25 -24 23 -25 30 -25 140 0 108 -1 115 -20 115 -16 0 -20 7
-20 35 0 28 4 35 20 35 16 0 20 7 20 30 0 23 8 35 38 54 20 14 40 25 45 25 4
1 7 -24 7 -54z m-233 -65 c49 -30 68 -73 68 -160 0 -62 -4 -82 -23 -113 -42
-66 -116 -86 -179 -47 l-33 20 0 -80 0 -80 -45 0 -45 0 0 235 0 235 45 0 c33
0 45 -4 45 -15 0 -12 6 -11 33 5 41 25 93 25 134 0z m772 0 c59 -29 86 -81 86
-160 0 -78 -19 -115 -78 -154 -78 -50 -197 -24 -235 51 -42 82 -36 163 15 224
51 60 140 76 212 39z m410 6 c43 -23 51 -54 51 -201 l0 -135 -44 0 -44 0 -4
126 c-3 112 -5 127 -23 140 -23 17 -64 11 -82 -13 -9 -11 -13 -56 -13 -135 l0
-118 -50 0 -50 0 0 170 0 170 45 0 c40 0 45 -3 45 -22 0 -15 3 -19 8 -11 25
39 111 54 161 29z m-729 -166 l0 -170 -50 0 -50 0 0 170 0 170 50 0 50 0 0
-170z m3105 -3730 l0 -3080 -3045 0 -3045 0 0 3080 0 3080 3045 0 3045 0 0
-3080z"/>
<path d="M2115 7190 c-11 -4 -31 -20 -45 -35 -23 -24 -25 -35 -25 -116 0 -87
1 -89 33 -121 28 -28 39 -33 82 -33 43 0 54 5 82 33 32 32 33 34 33 120 0 71
-4 92 -20 114 -31 42 -92 58 -140 38z"/>
<path d="M4290 7140 l0 -50 70 0 c57 0 74 4 90 20 11 11 20 25 20 30 0 6 -9
19 -20 30 -16 16 -33 20 -90 20 l-70 0 0 -50z"/>
<path d="M4290 6951 l0 -61 73 0 c85 0 117 16 117 59 0 42 -22 54 -111 59
l-79 5 0 -62z"/>
<path d="M2561 7068 c-57 -60 -22 -198 49 -198 24 0 56 40 64 79 18 97 -59
178 -113 119z"/>
<path d="M3348 7075 c-31 -17 -44 -63 -35 -128 13 -93 117 -101 147 -12 15 47
5 101 -25 131 -27 27 -49 29 -87 9z"/>
<path d="M3497 5856 c-78 -29 -117 -92 -117 -191 0 -104 46 -173 132 -196 81
-21 168 19 198 91 15 35 13 38 -28 49 -28 8 -31 7 -43 -20 -21 -53 -81 -75
-131 -48 -64 34 -63 214 1 249 40 21 87 12 115 -21 23 -27 31 -30 61 -25 40 8
40 7 20 46 -33 65 -130 95 -208 66z"/>
<path d="M3897 5856 c-80 -30 -117 -91 -117 -193 1 -114 44 -180 134 -204 85
-23 175 10 218 79 19 31 23 51 23 123 0 76 -3 90 -27 126 -44 67 -151 99 -231
69z m131 -72 c33 -23 52 -67 52 -124 0 -88 -42 -140 -113 -140 -31 0 -46 7
-73 34 -32 32 -34 37 -34 106 0 69 2 74 34 106 27 27 42 34 73 34 21 0 49 -7
61 -16z"/>
<path d="M1282 5849 c-47 -14 -99 -109 -59 -109 6 0 22 -3 33 -6 17 -4 23 0
28 20 11 46 90 47 102 1 8 -33 -16 -73 -79 -130 -61 -56 -107 -118 -107 -146
0 -18 10 -19 130 -19 l130 0 0 40 0 40 -75 0 c-41 0 -75 2 -75 6 0 3 27 30 61
61 68 64 89 97 89 145 0 80 -82 124 -178 97z"/>
<path d="M1705 5744 l75 -117 0 -84 0 -83 35 0 35 0 0 82 0 81 68 106 c38 58
72 112 76 119 5 9 -4 12 -37 12 l-45 0 -43 -75 c-23 -41 -46 -75 -50 -75 -4 0
-27 33 -51 73 -44 71 -45 72 -91 75 l-47 3 75 -117z"/>
<path d="M2050 5660 l0 -200 150 0 150 0 0 35 0 35 -110 0 -110 0 0 50 0 50
100 0 100 0 0 35 0 35 -100 0 -100 0 0 45 0 45 110 0 110 0 0 35 0 35 -150 0
-150 0 0 -200z"/>
<path d="M2531 5838 c-5 -13 -41 -103 -79 -200 l-70 -178 43 0 c42 0 43 1 55
45 l13 46 85 -3 85 -3 16 -42 c15 -42 17 -43 58 -43 l43 0 -13 33 c-7 17 -44
107 -82 200 l-69 167 -38 0 c-31 0 -40 -5 -47 -22z m78 -151 c11 -32 21 -60
21 -62 0 -3 -22 -5 -50 -5 -27 0 -50 3 -50 8 0 20 45 131 51 125 3 -5 16 -34
28 -66z"/>
<path d="M2830 5660 l0 -200 40 0 40 0 0 85 c0 85 0 85 26 85 41 0 58 -15 110
-94 l49 -76 47 0 48 0 -36 58 c-20 31 -50 71 -66 88 l-30 32 39 18 c29 14 41
29 52 60 13 37 12 44 -5 80 -25 52 -60 63 -201 63 l-113 1 0 -200z m234 114
c20 -20 20 -33 -1 -56 -13 -14 -31 -18 -85 -18 l-68 0 0 45 0 45 69 0 c50 0
74 -4 85 -16z"/>
<path d="M4214 5798 c12 -35 44 -125 71 -200 l47 -138 43 0 c32 0 45 5 50 18
3 9 33 91 65 182 32 91 62 173 65 183 7 16 3 18 -36 15 l-43 -3 -46 -142 c-25
-79 -48 -143 -51 -143 -4 0 -28 65 -55 145 l-49 145 -42 0 -42 0 23 -62z"/>
<path d="M4600 5660 l0 -200 150 0 150 0 0 35 0 35 -110 0 -110 0 0 50 0 50
100 0 100 0 0 35 0 35 -100 0 -100 0 0 45 0 44 108 3 107 3 3 33 3 32 -150 0
-151 0 0 -200z"/>
<path d="M4970 5660 l0 -200 40 0 40 0 0 86 0 85 38 -3 c34 -3 41 -9 92 -85
l55 -82 48 -1 47 0 -38 61 c-22 34 -51 74 -66 89 l-26 28 37 19 c29 13 41 28
52 59 13 37 12 44 -5 80 -25 52 -60 63 -201 63 l-113 1 0 -200z m234 114 c42
-42 6 -74 -85 -74 l-69 0 0 45 0 45 69 0 c50 0 74 -4 85 -16z"/>
<path d="M650 5170 c0 -20 7 -20 2600 -20 2593 0 2600 0 2600 20 0 20 -7 20
-2600 20 -2593 0 -2600 0 -2600 -20z"/>
<path d="M3860 4771 c0 -5 -10 -13 -22 -16 -42 -13 -68 -46 -68 -85 0 -39 26
-72 68 -85 20 -6 22 -13 22 -71 0 -57 -2 -65 -17 -62 -10 2 -25 17 -33 33 -14
29 -50 38 -50 13 0 -25 37 -69 67 -79 22 -7 33 -17 33 -30 0 -10 5 -19 10 -19
6 0 10 9 10 19 0 13 11 23 35 31 44 14 65 44 65 90 0 46 -21 76 -65 90 -34 11
-35 13 -35 66 0 59 18 73 42 34 14 -22 48 -27 48 -7 0 18 -39 53 -67 62 -13 3
-23 11 -23 16 0 5 -4 9 -10 9 -5 0 -10 -4 -10 -9z m0 -101 c0 -55 -17 -67 -44
-29 -20 29 -1 79 30 79 10 0 14 -14 14 -50z m58 -116 c26 -18 29 -60 5 -86
-31 -34 -43 -23 -43 42 0 33 3 60 8 60 4 0 18 -7 30 -16z"/>
<path d="M1360 4585 c0 -168 1 -175 20 -175 19 0 20 7 20 175 0 168 -1 175
-20 175 -19 0 -20 -7 -20 -175z"/>
<path d="M2380 4585 c0 -168 1 -175 20 -175 19 0 20 7 20 175 0 168 -1 175
-20 175 -19 0 -20 -7 -20 -175z"/>
<path d="M2490 4585 c0 -168 1 -175 20 -175 19 0 20 7 20 175 0 168 -1 175
-20 175 -19 0 -20 -7 -20 -175z"/>
<path d="M2990 4740 c0 -13 7 -20 20 -20 13 0 20 7 20 20 0 13 -7 20 -20 20
-13 0 -20 -7 -20 -20z"/>
<path d="M4131 4729 c-13 -17 -35 -36 -48 -42 -12 -5 -23 -18 -23 -29 0 -23 9
-23 40 2 14 11 28 20 33 20 4 0 7 -61 7 -135 0 -128 1 -135 20 -135 19 0 20 7
20 175 0 190 -4 201 -49 144z"/>
<path d="M4354 4746 c-40 -18 -58 -66 -58 -161 -1 -89 17 -141 54 -160 36 -19
63 -19 99 -1 37 20 53 58 59 144 10 147 -54 221 -154 178z m90 -42 c23 -23 29
-54 24 -145 -4 -89 -16 -109 -68 -109 -50 0 -65 31 -65 135 0 77 3 96 19 114
23 25 68 28 90 5z"/>
<path d="M4754 4746 c-40 -18 -58 -66 -58 -161 -1 -89 17 -141 54 -160 36 -19
63 -19 99 -1 37 20 53 58 59 144 10 147 -54 221 -154 178z m90 -42 c23 -23 29
-54 24 -145 -4 -89 -16 -109 -68 -109 -50 0 -65 31 -65 135 0 77 3 96 19 114
23 25 68 28 90 5z"/>
<path d="M5018 4745 c-36 -20 -53 -74 -52 -165 1 -103 20 -145 73 -161 85 -25
131 24 139 149 10 148 -64 229 -160 177z m88 -33 c24 -16 34 -54 34 -127 0
-102 -17 -135 -71 -135 -49 0 -64 31 -64 135 0 77 3 96 19 114 19 21 61 28 82
13z"/>
<path d="M2008 4739 c-11 -6 -18 -22 -18 -39 0 -20 -5 -30 -15 -30 -8 0 -15
-9 -15 -20 0 -11 7 -20 15 -20 12 0 15 -17 15 -93 0 -78 3 -97 18 -110 26 -24
62 -22 62 3 0 13 -7 20 -20 20 -19 0 -20 7 -20 90 0 83 1 90 20 90 13 0 20 7
20 20 0 13 -7 20 -19 20 -16 0 -20 8 -23 39 -3 35 -5 38 -20 30z"/>
<path d="M2888 4739 c-11 -6 -18 -22 -18 -39 0 -20 -5 -30 -15 -30 -8 0 -15
-9 -15 -20 0 -11 7 -20 15 -20 12 0 15 -17 15 -93 0 -78 3 -97 18 -110 26 -24
62 -22 62 3 0 13 -7 20 -20 20 -19 0 -20 7 -20 90 0 83 1 90 20 90 13 0 20 7
20 20 0 13 -7 20 -19 20 -16 0 -20 8 -23 39 -3 35 -5 38 -20 30z"/>
<path d="M1560 4673 c-8 -3 -23 -12 -32 -21 -16 -14 -18 -13 -18 1 0 10 -8 17
-20 17 -19 0 -20 -7 -20 -130 0 -121 1 -130 19 -130 17 0 19 10 23 101 3 110
13 129 68 129 44 0 50 -16 50 -127 0 -96 1 -103 20 -103 19 0 20 7 20 109 0
89 -3 113 -17 130 -19 22 -67 34 -93 24z"/>
<path d="M1779 4669 c-15 -6 -33 -23 -39 -40 -19 -45 10 -78 88 -102 63 -18
78 -37 50 -65 -25 -25 -108 -8 -108 22 0 9 -7 12 -20 9 -27 -7 -25 -25 6 -54
20 -19 36 -24 76 -24 42 0 53 4 74 28 27 32 31 69 9 90 -8 9 -38 23 -67 32
-68 22 -86 38 -68 59 18 23 77 21 91 -3 10 -16 49 -19 49 -4 0 18 -25 43 -51
52 -38 13 -55 13 -90 0z"/>
<path d="M2175 4673 c-26 -7 -65 -43 -65 -60 0 -20 34 -15 48 7 15 24 83 28
102 5 25 -31 8 -49 -60 -63 -69 -13 -100 -37 -100 -76 0 -59 67 -90 135 -62
46 19 45 19 45 1 0 -9 9 -15 21 -15 17 0 20 4 15 23 -3 12 -6 61 -6 108 0 104
-14 128 -75 134 -22 2 -49 1 -60 -2z m95 -162 c0 -36 -31 -61 -75 -61 -35 0
-55 15 -55 41 0 22 9 28 62 38 67 14 68 13 68 -18z"/>
<path d="M2655 4673 c-26 -7 -65 -43 -65 -60 0 -20 34 -15 48 7 15 24 83 28
102 5 25 -31 8 -49 -60 -63 -69 -13 -100 -37 -100 -76 0 -59 67 -90 135 -62
46 19 45 19 45 1 0 -9 9 -15 21 -15 17 0 20 4 15 23 -3 12 -6 61 -6 108 0 104
-14 128 -75 134 -22 2 -49 1 -60 -2z m95 -162 c0 -36 -31 -61 -75 -61 -35 0
-55 15 -55 41 0 22 9 28 62 38 67 14 68 13 68 -18z"/>
<path d="M3153 4666 c-40 -18 -63 -62 -63 -121 0 -61 23 -103 67 -122 98 -40
184 52 154 165 -20 73 -91 108 -158 78z m103 -47 c14 -15 19 -36 19 -74 0 -64
-23 -95 -68 -95 -50 0 -77 34 -77 96 0 42 5 58 22 74 29 27 79 26 104 -1z"/>
<path d="M3460 4673 c-8 -3 -23 -12 -32 -21 -16 -14 -18 -13 -18 1 0 10 -8 17
-20 17 -19 0 -20 -7 -20 -130 0 -121 1 -130 19 -130 17 0 19 10 23 101 3 110
13 129 68 129 44 0 50 -16 50 -127 0 -96 1 -103 20 -103 19 0 20 7 20 109 0
89 -3 113 -17 130 -19 22 -67 34 -93 24z"/>
<path d="M2990 4540 c0 -123 1 -130 20 -130 19 0 20 7 20 130 0 123 -1 130
-20 130 -19 0 -20 -7 -20 -130z"/>
<path d="M4590 4430 c0 -13 7 -20 20 -20 13 0 20 7 20 20 0 13 -7 20 -20 20
-13 0 -20 -7 -20 -20z"/>
<path d="M3500 4191 c0 -5 -10 -13 -22 -16 -42 -13 -68 -46 -68 -85 0 -39 26
-72 68 -85 20 -6 22 -13 22 -71 0 -57 -2 -65 -17 -62 -10 2 -25 17 -33 33 -10
20 -21 29 -33 27 -37 -7 -2 -76 48 -92 24 -8 35 -18 35 -31 0 -10 5 -19 10
-19 6 0 10 9 10 19 0 13 11 23 35 31 44 14 65 44 65 90 0 46 -21 76 -65 90
-34 11 -35 13 -35 67 0 46 3 54 17 51 10 -2 22 -12 28 -23 11 -22 45 -22 45
-1 0 17 -39 52 -67 61 -13 3 -23 11 -23 16 0 5 -4 9 -10 9 -5 0 -10 -4 -10 -9z
m0 -101 c0 -52 -6 -59 -32 -37 -24 19 -28 43 -12 66 27 38 44 26 44 -29z m58
-116 c38 -27 21 -104 -24 -104 -11 0 -14 15 -14 60 0 33 3 60 8 60 4 0 18 -7
30 -16z"/>
<path d="M1190 4005 c0 -168 1 -175 20 -175 19 0 20 7 20 175 0 168 -1 175
-20 175 -19 0 -20 -7 -20 -175z"/>
<path d="M3691 4113 c-7 -38 -15 -78 -17 -90 -7 -28 24 -35 48 -11 18 18 74
24 94 10 37 -24 41 -103 8 -137 -9 -8 -33 -15 -55 -15 -34 0 -43 5 -57 30 -9
16 -25 30 -34 30 -27 0 -2 -58 36 -81 37 -23 67 -24 106 -4 42 22 60 53 60
106 0 81 -66 135 -135 109 -15 -6 -29 -9 -30 -8 -1 2 2 22 7 46 l9 42 70 0
c62 0 69 2 69 20 0 18 -7 20 -83 20 l-84 0 -12 -67z"/>
<path d="M4000 4138 c-7 -24 -27 -97 -46 -163 -37 -130 -40 -149 -22 -143 6 2
30 71 54 154 59 205 57 194 40 194 -9 0 -20 -17 -26 -42z"/>
<path d="M5140 4005 c0 -168 1 -175 20 -175 18 0 20 7 20 86 0 111 16 144 71
144 43 0 49 -16 49 -127 0 -96 1 -103 20 -103 19 0 20 7 20 109 0 92 -3 112
-19 132 -24 30 -89 33 -120 5 l-21 -19 0 61 c0 55 -2 62 -20 62 -19 0 -20 -7
-20 -175z"/>
<path d="M5038 4159 c-11 -6 -18 -22 -18 -39 0 -20 -5 -30 -15 -30 -8 0 -15
-9 -15 -20 0 -11 7 -20 15 -20 12 0 15 -17 15 -94 0 -87 2 -96 22 -110 32 -22
58 -20 58 4 0 13 -7 20 -20 20 -19 0 -20 7 -20 90 0 83 1 90 20 90 13 0 20 7
20 20 0 13 -7 20 -19 20 -16 0 -20 8 -23 39 -3 35 -5 38 -20 30z"/>
<path d="M1390 4093 c-8 -3 -23 -12 -32 -21 -16 -14 -18 -13 -18 1 0 10 -8 17
-20 17 -19 0 -20 -7 -20 -130 0 -121 1 -130 19 -130 17 0 19 10 23 101 3 110
13 129 68 129 44 0 50 -16 50 -127 0 -96 1 -103 20 -103 19 0 20 7 20 109 0
89 -3 113 -17 130 -19 22 -67 34 -93 24z"/>
<path d="M1610 4087 c-13 -7 -31 -24 -39 -39 -14 -25 -14 -29 5 -55 14 -18 39
-33 74 -43 60 -17 81 -40 61 -64 -24 -29 -111 -14 -111 18 0 9 -7 12 -20 9
-27 -7 -25 -25 6 -54 20 -19 36 -24 76 -24 42 0 53 4 74 28 27 32 31 69 9 90
-8 9 -38 23 -67 32 -68 22 -86 38 -68 59 18 23 77 21 91 -3 10 -16 49 -19 49
-4 0 18 -25 43 -51 52 -41 14 -58 14 -89 -2z"/>
<path d="M2132 4084 c-12 -8 -22 -10 -22 -5 0 6 -9 11 -20 11 -19 0 -20 -7
-20 -130 0 -123 1 -130 20 -130 19 0 20 7 20 93 0 107 13 137 61 137 31 0 41
23 13 34 -22 9 -27 8 -52 -10z"/>
<path d="M2290 4093 c-24 -9 -60 -45 -60 -60 0 -20 34 -15 48 7 15 24 83 28
102 5 24 -29 8 -49 -50 -61 -31 -6 -65 -16 -78 -23 -47 -25 -37 -102 15 -122
27 -11 67 -5 116 16 12 5 17 3 17 -9 0 -10 8 -16 21 -16 17 0 20 4 15 23 -3
12 -6 61 -6 108 0 107 -13 129 -80 135 -25 2 -52 1 -60 -3z m100 -162 c0 -36
-31 -61 -75 -61 -35 0 -55 15 -55 41 0 22 9 28 62 38 67 14 68 13 68 -18z"/>
<path d="M2590 4093 c-8 -3 -23 -12 -32 -21 -16 -14 -18 -13 -18 1 0 10 -8 17
-20 17 -19 0 -20 -7 -20 -130 0 -121 1 -130 19 -130 17 0 19 10 23 101 3 110
13 129 68 129 44 0 50 -16 50 -127 0 -96 1 -103 20 -103 19 0 20 7 20 109 0
89 -3 113 -17 130 -19 22 -67 34 -93 24z"/>
<path d="M2825 4086 c-39 -18 -56 -47 -62 -110 -11 -120 104 -190 183 -111 29
29 31 55 4 55 -11 0 -20 -7 -20 -15 0 -18 -31 -35 -64 -35 -67 0 -92 142 -32
182 23 16 65 8 83 -15 12 -15 25 -22 35 -18 15 5 16 10 5 31 -23 46 -77 61
-132 36z"/>
<path d="M3065 4085 c-39 -20 -55 -46 -62 -104 -11 -94 51 -162 135 -146 33 6
82 44 82 64 0 20 -36 16 -53 -6 -26 -33 -79 -31 -106 3 -38 48 -30 54 69 54
l90 0 0 33 c0 61 -52 118 -108 117 -9 0 -31 -7 -47 -15z m97 -42 c8 -10 18
-26 21 -35 6 -16 -1 -18 -68 -18 -82 0 -90 7 -53 47 26 28 78 31 100 6z"/>
<path d="M4136 4079 c-21 -17 -26 -18 -26 -5 0 9 -8 16 -20 16 -19 0 -20 -7
-20 -130 0 -121 1 -130 19 -130 17 0 19 10 23 101 2 86 6 103 22 115 24 17 58
18 74 2 8 -8 12 -48 12 -115 0 -96 1 -103 20 -103 19 0 20 7 20 93 0 106 13
137 59 137 45 0 51 -15 51 -127 0 -96 1 -103 20 -103 19 0 20 6 19 98 -1 53
-4 108 -8 122 -14 50 -92 63 -127 21 -15 -17 -17 -17 -40 5 -29 30 -63 31 -98
3z"/>
<path d="M4523 4086 c-41 -18 -63 -62 -63 -123 0 -65 27 -108 79 -124 95 -28
170 62 142 169 -20 73 -91 108 -158 78z m103 -47 c14 -15 19 -36 19 -74 0 -65
-22 -95 -72 -95 -50 0 -73 29 -73 92 0 39 5 57 22 75 28 30 78 31 104 2z"/>
<path d="M4830 4093 c-8 -3 -23 -12 -32 -21 -16 -14 -18 -13 -18 1 0 10 -8 17
-20 17 -19 0 -20 -7 -20 -130 0 -121 1 -130 19 -130 17 0 19 10 23 101 3 110
13 129 68 129 44 0 50 -16 50 -127 0 -96 1 -103 20 -103 19 0 20 7 20 109 0
89 -3 113 -17 130 -19 22 -67 34 -93 24z"/>
<path d="M1810 4001 c0 -103 12 -144 46 -160 36 -16 58 -14 87 9 14 11 28 20
31 20 3 0 6 -9 6 -20 0 -11 7 -20 15 -20 13 0 15 21 15 130 0 123 -1 130 -20
130 -19 0 -20 -7 -20 -93 0 -104 -12 -127 -63 -127 -47 0 -57 22 -57 126 0 87
-1 94 -20 94 -18 0 -20 -7 -20 -89z"/>
<path d="M3185 3239 c-6 -12 -26 -27 -45 -33 -72 -23 -103 -123 -60 -194 11
-18 39 -42 64 -54 l44 -21 1 -68 c0 -38 -3 -69 -8 -69 -9 0 -46 41 -53 59 -2
4 -20 6 -40 3 -44 -5 -48 -20 -17 -71 13 -22 37 -40 70 -54 31 -13 48 -26 45
-34 -8 -21 5 -43 25 -43 14 0 19 7 19 30 0 25 6 32 45 49 58 26 85 69 85 138
0 62 -28 102 -90 127 l-40 16 0 65 c0 68 12 83 32 40 7 -16 17 -24 26 -20 7 3
25 5 38 5 22 0 24 3 19 23 -11 33 -44 65 -81 77 -23 8 -34 18 -34 31 0 26 -33
25 -45 -2z m1 -144 c-1 -55 -10 -67 -34 -43 -24 24 -7 98 22 98 10 0 13 -15
12 -55z m87 -193 c21 -19 22 -51 1 -80 -29 -42 -44 -28 -44 44 0 68 3 70 43
36z"/>
<path d="M1050 3180 l0 -40 70 0 70 0 0 -205 0 -205 45 0 45 0 0 205 0 205 75
0 75 0 0 40 0 40 -190 0 -190 0 0 -40z"/>
<path d="M2470 2975 l0 -245 45 0 45 0 0 245 0 245 -45 0 -45 0 0 -245z"/>
<path d="M3578 3190 c-10 -17 -40 -44 -68 -62 -46 -28 -50 -34 -50 -69 0 -22
4 -39 8 -39 4 0 29 14 55 30 26 17 50 30 52 30 3 0 5 -79 5 -175 l0 -175 40 0
40 0 0 245 0 245 -32 0 c-26 0 -37 -6 -50 -30z"/>
<path d="M3893 3201 c-63 -29 -99 -111 -49 -111 13 0 31 -3 40 -6 10 -4 16 -1
16 8 0 38 71 63 98 36 30 -30 3 -98 -38 -98 -10 0 -20 -10 -24 -22 -11 -42 -7
-48 27 -48 45 0 72 -30 72 -80 0 -49 -27 -80 -70 -80 -31 0 -56 19 -67 50 -8
22 -88 15 -88 -7 0 -54 87 -123 155 -123 49 0 110 34 135 75 42 68 25 160 -35
187 l-24 11 29 34 c57 65 27 159 -58 183 -51 14 -71 12 -119 -9z"/>
<path d="M4305 3213 c-38 -10 -64 -35 -86 -81 -20 -40 -23 -63 -24 -162 0
-100 3 -121 23 -162 18 -36 34 -52 68 -69 77 -37 145 -13 186 64 20 37 23 56
23 167 0 111 -3 130 -23 167 -12 24 -33 50 -47 59 -26 17 -88 26 -120 17z m73
-81 c20 -14 32 -71 32 -162 0 -129 -16 -169 -67 -170 -44 0 -58 42 -58 170 0
94 3 121 18 143 17 27 49 35 75 19z"/>
<path d="M4865 3213 c-38 -10 -64 -35 -86 -81 -20 -40 -23 -63 -24 -162 0
-100 3 -121 23 -162 18 -36 34 -52 68 -69 77 -37 145 -13 186 64 20 37 23 56
23 167 0 111 -3 130 -23 167 -12 24 -33 50 -47 59 -26 17 -88 26 -120 17z m73
-81 c20 -14 32 -71 32 -162 0 -129 -16 -169 -67 -170 -44 0 -58 42 -58 170 0
94 3 121 18 143 17 27 49 35 75 19z"/>
<path d="M5224 3202 c-31 -15 -46 -31 -64 -68 -21 -43 -24 -64 -25 -164 0
-100 3 -121 23 -162 18 -36 34 -52 68 -69 79 -38 150 -12 187 69 19 40 22 65
22 167 0 102 -3 126 -21 159 -40 77 -113 103 -190 68z m94 -70 c43 -28 43
-296 0 -323 -26 -17 -57 -9 -75 18 -26 40 -26 246 0 286 17 27 49 35 75 19z"/>
<path d="M1908 3179 c-33 -17 -38 -24 -38 -54 0 -31 -3 -35 -25 -35 -22 0 -25
-4 -25 -35 0 -31 3 -35 25 -35 l25 0 0 -123 c0 -137 8 -161 60 -172 17 -4 44
-4 60 0 25 5 30 11 30 36 0 25 -4 29 -29 29 -36 0 -41 15 -41 138 l0 92 35 0
c33 0 35 2 35 35 0 33 -2 35 -35 35 l-36 0 2 50 c2 27 1 52 -2 54 -2 2 -21 -5
-41 -15z"/>
<path d="M1547 3086 c-50 -19 -76 -42 -98 -91 -51 -110 3 -236 112 -265 80
-22 170 17 206 88 27 54 24 147 -5 194 -44 71 -137 103 -215 74z m118 -80 c13
-13 27 -40 30 -60 22 -117 -65 -198 -142 -132 -26 22 -28 30 -28 96 0 66 2 74
28 96 36 31 81 31 112 0z"/>
<path d="M2155 3085 c-22 -8 -41 -15 -42 -15 -5 0 -34 -62 -31 -65 2 -1 19 -5
39 -8 28 -4 38 -1 47 14 9 13 23 19 50 19 46 0 61 -9 64 -39 3 -22 -4 -25 -82
-46 -100 -27 -130 -54 -130 -115 0 -30 7 -48 29 -72 26 -29 36 -33 79 -33 37
0 59 6 82 23 31 24 31 24 37 3 4 -17 13 -21 50 -21 39 0 44 2 37 18 -4 9 -10
78 -13 153 -7 153 -14 171 -80 189 -49 13 -88 12 -136 -5z m132 -222 c-7 -44
-38 -73 -76 -73 -33 0 -51 16 -51 46 0 28 17 41 66 53 66 15 67 15 61 -26z"/>
<path d="M2680 3045 l0 -45 45 0 45 0 0 45 0 45 -45 0 -45 0 0 -45z"/>
<path d="M2680 2775 l0 -45 45 0 45 0 0 45 0 45 -45 0 -45 0 0 -45z"/>
<path d="M4580 2775 l0 -45 45 0 45 0 0 45 0 45 -45 0 -45 0 0 -45z"/>
<path d="M1472 1393 c2 -11 14 -19 30 -21 16 -2 28 -11 33 -25 14 -49 47 -174
52 -199 10 -54 27 -59 179 -56 122 3 139 5 142 20 3 16 -10 18 -135 20 -134 3
-138 4 -141 25 -3 22 -2 23 153 25 l157 3 14 40 c7 21 14 57 16 80 l3 40 -198
5 -198 5 -12 25 c-10 20 -21 26 -56 28 -37 3 -42 1 -39 -15z"/>
<path d="M4058 1393 c-16 -2 -44 -23 -66 -48 -32 -36 -40 -55 -46 -99 -11 -96
2 -144 50 -193 43 -42 45 -43 111 -43 81 0 123 21 148 74 14 29 15 39 5 51
-21 26 -64 18 -83 -14 -29 -49 -97 -50 -134 -2 -7 9 -13 44 -13 79 0 72 16
104 61 122 27 12 33 10 69 -19 39 -32 92 -42 106 -20 6 11 -11 54 -31 75 -28
30 -114 48 -177 37z"/>
<path d="M2262 1373 c-5 -10 -19 -45 -31 -78 -34 -88 -38 -101 -68 -175 -6
-14 -16 -38 -22 -53 -20 -50 -15 -58 32 -55 38 3 43 6 53 38 l12 35 73 3 74 2
17 -40 c15 -37 19 -40 57 -40 22 0 42 3 44 8 3 4 -4 27 -15 52 -11 25 -23 54
-28 65 -13 34 -32 79 -41 97 -5 10 -9 22 -9 28 0 6 -9 29 -19 53 -10 23 -21
50 -25 60 -4 13 -16 17 -50 17 -33 0 -48 -5 -54 -17z m71 -135 c3 -13 9 -33
12 -45 7 -21 4 -23 -28 -23 -35 0 -56 13 -38 24 4 3 11 19 14 36 8 35 32 40
40 8z"/>
<path d="M2710 1337 l0 -53 -63 4 c-57 4 -65 2 -89 -23 -31 -30 -34 -46 -30
-133 3 -53 8 -66 34 -92 25 -25 37 -30 78 -30 27 0 52 5 55 10 4 7 12 7 25 0
10 -5 30 -10 44 -10 l26 0 0 190 0 190 -40 0 -40 0 0 -53z m-18 -124 c24 -21
25 -95 1 -123 -38 -45 -83 -11 -83 63 0 69 40 99 82 60z"/>
<path d="M3030 1337 l0 -53 -63 4 c-57 4 -64 2 -90 -23 -25 -26 -31 -41 -30
-90 2 -98 3 -104 33 -134 30 -30 32 -30 130 -29 l100 1 0 189 0 188 -40 0 -40
0 0 -53z m-18 -124 c24 -21 25 -99 1 -125 -38 -42 -83 -8 -83 64 0 72 38 101
82 61z"/>
<path d="M3370 1372 c-26 -8 -50 -34 -50 -54 0 -10 -7 -21 -15 -24 -19 -8 -19
-48 -1 -77 7 -12 16 -57 19 -100 3 -43 11 -85 17 -93 8 -9 31 -14 62 -14 l49
0 -3 33 c-2 17 -8 31 -15 30 -23 -5 -34 26 -31 84 3 49 6 60 26 68 15 7 22 18
22 37 0 20 -6 27 -22 30 -18 2 -24 11 -26 38 -4 40 -11 50 -32 42z"/>
<path d="M4858 1363 c-14 -9 -29 -29 -32 -45 -5 -27 -8 -28 -63 -29 -32 -1
-80 -1 -106 1 l-48 2 3 -139 3 -138 38 -3 37 -3 0 83 c0 65 4 88 19 107 12 16
24 22 35 18 9 -4 26 -1 37 6 32 19 46 -10 48 -105 1 -45 7 -88 13 -95 15 -18
107 -17 114 1 7 19 -13 56 -29 53 -8 -1 -13 20 -15 71 -3 67 -1 74 18 79 28 7
29 63 1 63 -16 0 -20 8 -23 42 -3 48 -13 54 -50 31z"/>
<path d="M3528 1267 c-48 -39 -63 -123 -34 -190 20 -48 55 -67 124 -67 52 0
63 4 98 34 38 33 39 34 39 105 0 69 -1 72 -37 106 -34 32 -41 35 -100 35 -51
0 -68 -5 -90 -23z m128 -58 c37 -42 12 -139 -37 -139 -10 0 -27 12 -39 28 -54
67 19 174 76 111z"/>
<path d="M4336 1257 c-15 -19 -26 -36 -26 -39 0 -15 65 -17 87 -2 29 19 67 15
71 -7 2 -12 -7 -19 -30 -23 -18 -4 -45 -9 -60 -12 -43 -10 -68 -40 -68 -83 0
-54 31 -81 96 -81 28 0 55 5 61 11 8 8 13 8 17 0 4 -6 25 -11 48 -11 38 0 40
2 32 23 -4 12 -9 67 -11 122 -6 128 -12 135 -117 135 -73 0 -76 -1 -100 -33z
m134 -145 c0 -25 -19 -42 -47 -42 -29 0 -40 23 -21 44 19 22 68 21 68 -2z"/>
<path d="M1647 1049 c-8 -29 10 -51 37 -47 16 2 21 10 21 33 0 25 -4 31 -26
33 -20 2 -28 -2 -32 -19z"/>
<path d="M1825 1049 c-5 -13 -2 -27 8 -36 24 -24 59 -8 55 25 -4 36 -53 45
-63 11z"/>
</g>
</svg>
