<?xml version="1.0" standalone="no"?>
<!DOCTYPE svg PUBLIC "-//W3C//DTD SVG 20010904//EN"
 "http://www.w3.org/TR/2001/REC-SVG-20010904/DTD/svg10.dtd">
<svg version="1.0" xmlns="http://www.w3.org/2000/svg"
 width="642.000000pt" height="770.000000pt" viewBox="0 0 642.000000 770.000000"
 preserveAspectRatio="xMidYMid meet">

<g transform="translate(0.000000,770.000000) scale(0.100000,-0.100000)"
fill="#000000" stroke="none">
<path d="M73 7674 c-17 -9 -39 -31 -47 -49 -14 -30 -16 -395 -16 -3780 0
-3514 1 -3749 17 -3776 38 -64 -226 -59 3188 -59 2858 0 3109 1 3135 16 15 9
35 29 44 44 15 26 16 325 16 3780 0 3455 -1 3754 -16 3780 -9 15 -29 35 -44
44 -26 15 -277 16 -3137 16 -2802 0 -3111 -2 -3140 -16z m2202 -413 c50 -22
101 -79 116 -129 6 -22 10 -73 8 -114 -7 -131 -74 -206 -196 -216 -75 -6 -136
13 -181 59 -46 46 -62 93 -62 185 1 106 45 185 125 220 44 19 142 17 190 -5z
m895 -31 l0 -40 -50 0 -50 0 0 40 0 40 50 0 50 0 0 -40z m1345 -177 c48 -120
89 -224 92 -230 4 -10 -10 -13 -49 -13 l-53 0 -18 50 -18 51 -92 -3 -91 -3
-17 -45 c-17 -45 -17 -45 -69 -48 -40 -2 -51 0 -48 10 49 125 153 391 163 416
13 30 17 32 64 32 l49 0 87 -217z m-1555 152 c0 -54 0 -55 30 -55 28 0 30 -3
30 -35 0 -32 -2 -35 -30 -35 l-31 0 3 -102 3 -103 26 2 c23 1 28 -3 32 -30 5
-39 -5 -47 -61 -47 -32 0 -49 6 -67 25 -24 23 -25 30 -25 140 0 108 -1 115
-20 115 -16 0 -20 7 -20 35 0 28 4 35 20 35 16 0 20 7 20 30 0 23 8 35 38 54
20 14 40 25 45 25 4 1 7 -24 7 -54z m-233 -65 c49 -30 68 -73 68 -160 0 -62
-4 -82 -23 -113 -42 -66 -116 -86 -179 -47 l-33 20 0 -80 0 -80 -45 0 -45 0 0
235 0 235 45 0 c33 0 45 -4 45 -15 0 -12 6 -11 33 5 41 25 93 25 134 0z m765
-2 c59 -33 83 -79 83 -158 0 -78 -19 -115 -78 -154 -78 -50 -197 -24 -235 51
-42 82 -36 163 15 224 52 61 143 77 215 37z m407 8 c43 -23 51 -54 51 -201 l0
-135 -44 0 -44 0 -3 126 c-4 110 -6 127 -23 140 -27 19 -52 18 -76 -6 -18 -18
-20 -33 -20 -140 l0 -120 -50 0 -50 0 0 170 0 170 45 0 c40 0 45 -3 45 -22 l0
-21 23 20 c12 11 29 23 37 26 29 10 81 7 109 -7z m-729 -166 l0 -170 -50 0
-50 0 0 170 0 170 50 0 50 0 0 -170z m3085 -3730 l0 -3080 -3045 0 -3045 0 0
3080 0 3080 3045 0 3045 0 0 -3080z"/>
<path d="M2135 7191 c-11 -5 -31 -21 -45 -36 -23 -24 -25 -35 -25 -116 0 -86
1 -90 31 -120 36 -35 95 -47 134 -27 13 7 35 29 48 48 21 31 23 44 20 112 -3
71 -6 80 -34 109 -33 33 -92 46 -129 30z"/>
<path d="M4351 7084 c-13 -38 -26 -75 -29 -81 -3 -10 12 -13 57 -13 l61 0 -19
48 c-10 26 -25 62 -33 81 l-13 33 -24 -68z"/>
<path d="M2595 7067 c-55 -46 -37 -169 27 -191 79 -27 118 148 45 199 -29 20
-41 19 -72 -8z"/>
<path d="M3372 7080 c-27 -11 -42 -47 -42 -103 0 -57 19 -89 57 -101 87 -24
139 119 68 190 -25 25 -45 29 -83 14z"/>
<path d="M3497 5856 c-78 -29 -117 -92 -117 -191 0 -104 46 -173 132 -196 81
-21 168 19 198 91 15 35 13 38 -28 49 -28 8 -31 7 -43 -20 -21 -53 -81 -75
-131 -48 -64 34 -63 214 1 249 40 21 87 12 115 -21 23 -27 31 -30 61 -25 40 8
40 7 20 46 -33 65 -130 95 -208 66z"/>
<path d="M3897 5856 c-80 -30 -117 -91 -117 -193 1 -114 44 -180 134 -204 85
-23 175 10 218 79 19 31 23 51 23 123 0 76 -3 90 -27 126 -44 67 -151 99 -231
69z m131 -72 c33 -23 52 -67 52 -124 0 -88 -42 -140 -113 -140 -31 0 -46 7
-73 34 -32 32 -34 37 -34 106 0 69 2 74 34 106 27 27 42 34 73 34 21 0 49 -7
61 -16z"/>
<path d="M1317 5825 c-15 -19 -41 -42 -57 -50 -25 -13 -30 -22 -30 -50 0 -42
6 -43 54 -10 20 14 39 25 41 25 3 0 5 -63 5 -140 l0 -140 35 0 35 0 0 200 0
200 -27 0 c-20 0 -36 -10 -56 -35z"/>
<path d="M1705 5744 l75 -117 0 -84 0 -83 35 0 35 0 0 82 0 81 68 106 c38 58
72 112 76 119 5 9 -4 12 -37 12 l-45 0 -43 -75 c-23 -41 -46 -75 -50 -75 -4 0
-27 33 -51 73 -44 71 -45 72 -91 75 l-47 3 75 -117z"/>
<path d="M2050 5660 l0 -200 150 0 150 0 0 35 0 35 -110 0 -110 0 0 50 0 50
100 0 100 0 0 35 0 35 -100 0 -100 0 0 45 0 45 110 0 110 0 0 35 0 35 -150 0
-150 0 0 -200z"/>
<path d="M2531 5838 c-5 -13 -41 -103 -79 -200 l-70 -178 43 0 c42 0 43 1 55
45 l13 46 85 -3 85 -3 16 -42 c15 -42 17 -43 58 -43 l43 0 -13 33 c-7 17 -44
107 -82 200 l-69 167 -38 0 c-31 0 -40 -5 -47 -22z m78 -151 c11 -32 21 -60
21 -62 0 -3 -22 -5 -50 -5 -27 0 -50 3 -50 8 0 20 45 131 51 125 3 -5 16 -34
28 -66z"/>
<path d="M2830 5660 l0 -200 40 0 40 0 0 85 c0 85 0 85 26 85 41 0 58 -15 110
-94 l49 -76 47 0 48 0 -36 58 c-20 31 -50 71 -66 88 l-30 32 39 18 c29 14 41
29 52 60 13 37 12 44 -5 80 -25 52 -60 63 -201 63 l-113 1 0 -200z m234 114
c20 -20 20 -33 -1 -56 -13 -14 -31 -18 -85 -18 l-68 0 0 45 0 45 69 0 c50 0
74 -4 85 -16z"/>
<path d="M4214 5798 c12 -35 44 -125 71 -200 l47 -138 43 0 c32 0 45 5 50 18
3 9 33 91 65 182 32 91 62 173 65 183 7 16 3 18 -36 15 l-43 -3 -46 -142 c-25
-79 -48 -143 -51 -143 -4 0 -28 65 -55 145 l-49 145 -42 0 -42 0 23 -62z"/>
<path d="M4600 5660 l0 -200 150 0 150 0 0 35 0 35 -110 0 -110 0 0 50 0 50
100 0 100 0 0 35 0 35 -100 0 -100 0 0 45 0 44 108 3 107 3 3 33 3 32 -150 0
-151 0 0 -200z"/>
<path d="M4970 5660 l0 -200 40 0 40 0 0 86 0 85 38 -3 c34 -3 41 -9 92 -85
l55 -82 48 -1 47 0 -38 61 c-22 34 -51 74 -66 89 l-26 28 37 19 c29 13 41 28
52 59 13 37 12 44 -5 80 -25 52 -60 63 -201 63 l-113 1 0 -200z m234 114 c42
-42 6 -74 -85 -74 l-69 0 0 45 0 45 69 0 c50 0 74 -4 85 -16z"/>
<path d="M650 5170 c0 -20 7 -20 2600 -20 2593 0 2600 0 2600 20 0 20 -7 20
-2600 20 -2593 0 -2600 0 -2600 -20z"/>
<path d="M3860 4771 c0 -5 -10 -13 -22 -16 -42 -13 -68 -46 -68 -85 0 -39 26
-72 68 -85 20 -6 22 -13 22 -71 0 -57 -2 -65 -17 -62 -10 2 -25 17 -33 33 -14
29 -50 38 -50 13 0 -25 37 -69 67 -79 22 -7 33 -17 33 -30 0 -10 5 -19 10 -19
6 0 10 9 10 19 0 13 11 23 35 31 44 14 65 44 65 90 0 46 -21 76 -65 90 -34 11
-35 13 -35 66 0 59 18 73 42 34 14 -22 48 -27 48 -7 0 18 -39 53 -67 62 -13 3
-23 11 -23 16 0 5 -4 9 -10 9 -5 0 -10 -4 -10 -9z m0 -101 c0 -55 -17 -67 -44
-29 -20 29 -1 79 30 79 10 0 14 -14 14 -50z m58 -116 c26 -18 29 -60 5 -86
-31 -34 -43 -23 -43 42 0 33 3 60 8 60 4 0 18 -7 30 -16z"/>
<path d="M1360 4585 c0 -168 1 -175 20 -175 19 0 20 7 20 175 0 168 -1 175
-20 175 -19 0 -20 -7 -20 -175z"/>
<path d="M2380 4585 c0 -168 1 -175 20 -175 19 0 20 7 20 175 0 168 -1 175
-20 175 -19 0 -20 -7 -20 -175z"/>
<path d="M2490 4585 c0 -168 1 -175 20 -175 19 0 20 7 20 175 0 168 -1 175
-20 175 -19 0 -20 -7 -20 -175z"/>
<path d="M2990 4740 c0 -13 7 -20 20 -20 13 0 20 7 20 20 0 13 -7 20 -20 20
-13 0 -20 -7 -20 -20z"/>
<path d="M4078 4744 c-45 -24 -64 -74 -28 -74 11 0 20 4 20 9 0 19 32 41 60
41 66 0 74 -84 9 -97 -39 -8 -37 -29 5 -37 42 -8 59 -28 59 -66 0 -81 -113
-98 -138 -21 -4 13 -12 17 -24 14 -17 -4 -18 -9 -9 -35 12 -33 61 -68 96 -68
31 0 77 25 96 52 24 33 20 93 -6 118 -12 11 -26 20 -32 20 -5 0 0 10 12 23 41
44 24 105 -35 128 -33 12 -53 11 -85 -7z"/>
<path d="M4354 4746 c-40 -18 -58 -66 -58 -161 -1 -89 17 -141 54 -160 36 -19
63 -19 99 -1 37 20 53 58 59 144 10 147 -54 221 -154 178z m90 -42 c23 -23 29
-54 24 -145 -4 -89 -16 -109 -68 -109 -50 0 -65 31 -65 135 0 77 3 96 19 114
23 25 68 28 90 5z"/>
<path d="M4754 4746 c-40 -18 -58 -66 -58 -161 -1 -89 17 -141 54 -160 36 -19
63 -19 99 -1 37 20 53 58 59 144 10 147 -54 221 -154 178z m90 -42 c23 -23 29
-54 24 -145 -4 -89 -16 -109 -68 -109 -50 0 -65 31 -65 135 0 77 3 96 19 114
23 25 68 28 90 5z"/>
<path d="M5018 4745 c-36 -20 -53 -74 -52 -165 1 -103 20 -145 73 -161 85 -25
131 24 139 149 10 148 -64 229 -160 177z m88 -33 c24 -16 34 -54 34 -127 0
-102 -17 -135 -71 -135 -49 0 -64 31 -64 135 0 77 3 96 19 114 19 21 61 28 82
13z"/>
<path d="M2008 4739 c-11 -6 -18 -22 -18 -39 0 -20 -5 -30 -15 -30 -8 0 -15
-9 -15 -20 0 -11 7 -20 15 -20 12 0 15 -17 15 -93 0 -78 3 -97 18 -110 26 -24
62 -22 62 3 0 13 -7 20 -20 20 -19 0 -20 7 -20 90 0 83 1 90 20 90 13 0 20 7
20 20 0 13 -7 20 -19 20 -16 0 -20 8 -23 39 -3 35 -5 38 -20 30z"/>
<path d="M2888 4739 c-11 -6 -18 -22 -18 -39 0 -20 -5 -30 -15 -30 -8 0 -15
-9 -15 -20 0 -11 7 -20 15 -20 12 0 15 -17 15 -93 0 -78 3 -97 18 -110 26 -24
62 -22 62 3 0 13 -7 20 -20 20 -19 0 -20 7 -20 90 0 83 1 90 20 90 13 0 20 7
20 20 0 13 -7 20 -19 20 -16 0 -20 8 -23 39 -3 35 -5 38 -20 30z"/>
<path d="M1560 4673 c-8 -3 -23 -12 -32 -21 -16 -14 -18 -13 -18 1 0 10 -8 17
-20 17 -19 0 -20 -7 -20 -130 0 -121 1 -130 19 -130 17 0 19 10 23 101 3 110
13 129 68 129 44 0 50 -16 50 -127 0 -96 1 -103 20 -103 19 0 20 7 20 109 0
89 -3 113 -17 130 -19 22 -67 34 -93 24z"/>
<path d="M1779 4669 c-15 -6 -33 -23 -39 -40 -19 -45 10 -78 88 -102 63 -18
78 -37 50 -65 -25 -25 -108 -8 -108 22 0 9 -7 12 -20 9 -27 -7 -25 -25 6 -54
20 -19 36 -24 76 -24 42 0 53 4 74 28 27 32 31 69 9 90 -8 9 -38 23 -67 32
-68 22 -86 38 -68 59 18 23 77 21 91 -3 10 -16 49 -19 49 -4 0 18 -25 43 -51
52 -38 13 -55 13 -90 0z"/>
<path d="M2175 4673 c-26 -7 -65 -43 -65 -60 0 -20 34 -15 48 7 15 24 83 28
102 5 25 -31 8 -49 -60 -63 -69 -13 -100 -37 -100 -76 0 -59 67 -90 135 -62
46 19 45 19 45 1 0 -9 9 -15 21 -15 17 0 20 4 15 23 -3 12 -6 61 -6 108 0 104
-14 128 -75 134 -22 2 -49 1 -60 -2z m95 -162 c0 -36 -31 -61 -75 -61 -35 0
-55 15 -55 41 0 22 9 28 62 38 67 14 68 13 68 -18z"/>
<path d="M2655 4673 c-26 -7 -65 -43 -65 -60 0 -20 34 -15 48 7 15 24 83 28
102 5 25 -31 8 -49 -60 -63 -69 -13 -100 -37 -100 -76 0 -59 67 -90 135 -62
46 19 45 19 45 1 0 -9 9 -15 21 -15 17 0 20 4 15 23 -3 12 -6 61 -6 108 0 104
-14 128 -75 134 -22 2 -49 1 -60 -2z m95 -162 c0 -36 -31 -61 -75 -61 -35 0
-55 15 -55 41 0 22 9 28 62 38 67 14 68 13 68 -18z"/>
<path d="M3153 4666 c-40 -18 -63 -62 -63 -121 0 -61 23 -103 67 -122 98 -40
184 52 154 165 -20 73 -91 108 -158 78z m103 -47 c14 -15 19 -36 19 -74 0 -64
-23 -95 -68 -95 -50 0 -77 34 -77 96 0 42 5 58 22 74 29 27 79 26 104 -1z"/>
<path d="M3460 4673 c-8 -3 -23 -12 -32 -21 -16 -14 -18 -13 -18 1 0 10 -8 17
-20 17 -19 0 -20 -7 -20 -130 0 -121 1 -130 19 -130 17 0 19 10 23 101 3 110
13 129 68 129 44 0 50 -16 50 -127 0 -96 1 -103 20 -103 19 0 20 7 20 109 0
89 -3 113 -17 130 -19 22 -67 34 -93 24z"/>
<path d="M2990 4540 c0 -123 1 -130 20 -130 19 0 20 7 20 130 0 123 -1 130
-20 130 -19 0 -20 -7 -20 -130z"/>
<path d="M4590 4430 c0 -13 7 -20 20 -20 13 0 20 7 20 20 0 13 -7 20 -20 20
-13 0 -20 -7 -20 -20z"/>
<path d="M3160 4191 c0 -5 -10 -13 -22 -16 -42 -13 -68 -46 -68 -85 0 -39 26
-72 68 -85 20 -6 22 -13 22 -71 0 -57 -2 -65 -17 -62 -10 2 -25 17 -33 33 -10
20 -21 29 -33 27 -36 -7 -6 -66 45 -89 24 -11 38 -24 38 -35 0 -10 5 -18 10
-18 6 0 10 9 10 19 0 13 11 23 35 31 44 14 65 44 65 90 0 46 -21 76 -65 90
-34 11 -35 13 -35 66 0 59 18 73 42 34 14 -22 48 -27 48 -7 0 18 -39 53 -67
62 -13 3 -23 11 -23 16 0 5 -4 9 -10 9 -5 0 -10 -4 -10 -9z m0 -101 c0 -36 -4
-50 -14 -50 -31 0 -50 50 -30 79 27 38 44 26 44 -29z m58 -116 c26 -18 29 -60
5 -86 -31 -34 -43 -23 -43 42 0 33 3 60 8 60 4 0 18 -7 30 -16z"/>
<path d="M850 4005 c0 -168 1 -175 20 -175 19 0 20 7 20 175 0 168 -1 175 -20
175 -19 0 -20 -7 -20 -175z"/>
<path d="M3398 4065 c-43 -62 -78 -123 -78 -134 0 -19 6 -21 75 -21 l75 0 0
-40 c0 -29 4 -40 15 -40 15 0 19 15 15 58 -1 17 4 22 24 22 19 0 26 5 26 20 0
15 -7 20 -25 20 -25 0 -25 1 -24 83 1 130 0 147 -13 147 -7 -1 -48 -52 -90
-115z m72 -35 l0 -80 -55 0 c-30 0 -55 2 -55 5 0 7 101 155 106 155 2 0 4 -36
4 -80z"/>
<path d="M3794 4166 c-42 -18 -59 -68 -58 -166 1 -103 20 -145 73 -161 87 -26
140 35 141 163 0 84 -22 143 -61 163 -34 18 -55 18 -95 1z m90 -42 c23 -23 29
-54 24 -145 -4 -89 -16 -109 -68 -109 -50 0 -65 31 -65 135 0 77 3 96 19 114
23 25 68 28 90 5z"/>
<path d="M4064 4166 c-41 -18 -58 -67 -58 -161 0 -90 17 -141 54 -160 36 -19
63 -19 99 -1 37 20 53 58 59 144 10 147 -54 221 -154 178z m82 -34 c24 -16 34
-54 34 -127 0 -102 -17 -135 -71 -135 -49 0 -64 31 -64 135 0 77 3 96 19 114
19 21 61 28 82 13z"/>
<path d="M4293 4004 c-40 -138 -47 -174 -35 -172 10 2 29 51 58 153 58 204 57
195 41 195 -9 0 -31 -58 -64 -176z"/>
<path d="M5470 4005 c0 -168 1 -175 20 -175 18 0 20 7 20 86 0 111 16 144 71
144 43 0 49 -16 49 -127 0 -96 1 -103 20 -103 19 0 20 7 20 109 0 92 -3 112
-19 132 -24 30 -89 33 -120 5 l-21 -19 0 61 c0 55 -2 62 -20 62 -19 0 -20 -7
-20 -175z"/>
<path d="M5368 4159 c-11 -6 -18 -22 -18 -39 0 -20 -5 -30 -15 -30 -8 0 -15
-9 -15 -20 0 -11 7 -20 15 -20 12 0 15 -17 15 -93 0 -78 3 -97 18 -110 26 -24
62 -22 62 3 0 13 -7 20 -20 20 -19 0 -20 7 -20 90 0 83 1 90 20 90 13 0 20 7
20 20 0 13 -7 20 -19 20 -16 0 -20 8 -23 39 -3 35 -5 38 -20 30z"/>
<path d="M1060 4093 c-8 -3 -23 -12 -32 -21 -16 -14 -18 -13 -18 1 0 10 -8 17
-20 17 -19 0 -20 -7 -20 -130 0 -121 1 -130 19 -130 17 0 19 10 23 101 3 110
13 129 68 129 44 0 50 -16 50 -127 0 -96 1 -103 20 -103 19 0 20 7 20 109 0
89 -3 113 -17 130 -19 22 -67 34 -93 24z"/>
<path d="M1269 4089 c-15 -6 -33 -23 -39 -40 -18 -44 10 -79 81 -100 60 -18
80 -39 60 -63 -24 -29 -111 -14 -111 18 0 9 -7 12 -20 9 -27 -7 -25 -25 6 -54
20 -19 36 -24 76 -24 42 0 53 4 74 28 47 55 21 101 -70 127 -55 15 -74 33 -56
55 18 22 77 19 91 -4 10 -16 49 -19 49 -4 0 18 -25 43 -51 52 -38 13 -55 13
-90 0z"/>
<path d="M1802 4084 c-12 -8 -22 -10 -22 -5 0 6 -9 11 -20 11 -19 0 -20 -7
-20 -130 0 -123 1 -130 20 -130 18 0 20 7 20 88 0 104 13 137 55 137 31 1 46
22 24 36 -20 12 -32 11 -57 -7z"/>
<path d="M1965 4093 c-25 -6 -65 -43 -65 -59 0 -21 34 -21 45 1 7 14 22 21 48
23 44 4 69 -12 65 -42 -2 -17 -15 -23 -68 -34 -69 -13 -100 -37 -100 -76 0
-59 67 -90 135 -62 46 19 45 19 45 1 0 -9 9 -15 21 -15 17 0 20 4 15 23 -3 12
-6 61 -6 108 0 104 -14 128 -75 134 -22 2 -49 1 -60 -2z m95 -162 c0 -35 -31
-61 -71 -61 -42 0 -59 10 -59 35 0 29 7 33 62 44 67 14 68 13 68 -18z"/>
<path d="M2260 4093 c-8 -3 -23 -12 -32 -21 -16 -14 -18 -13 -18 1 0 10 -8 17
-20 17 -19 0 -20 -7 -20 -130 0 -121 1 -130 19 -130 17 0 19 10 23 101 3 110
13 129 68 129 44 0 50 -16 50 -127 0 -96 1 -103 20 -103 19 0 20 7 20 109 0
89 -3 113 -17 130 -19 22 -67 34 -93 24z"/>
<path d="M2480 4082 c-43 -21 -66 -80 -56 -147 12 -80 89 -125 154 -91 49 25
70 76 32 76 -11 0 -20 -4 -20 -9 0 -19 -32 -41 -60 -41 -70 0 -98 141 -36 182
23 16 65 8 83 -15 12 -15 25 -22 35 -18 39 14 -25 80 -77 81 -11 0 -36 -8 -55
-18z"/>
<path d="M2735 4090 c-95 -39 -100 -202 -8 -245 24 -11 46 -15 70 -10 34 6 83
44 83 64 0 20 -36 16 -53 -6 -26 -33 -79 -31 -106 3 -38 48 -30 54 69 54 l90
0 0 33 c0 80 -76 136 -145 107z m87 -47 c8 -10 18 -26 21 -35 6 -16 -1 -18
-68 -18 -82 0 -91 9 -55 48 26 27 80 30 102 5z"/>
<path d="M4476 4079 c-21 -17 -26 -18 -26 -5 0 9 -8 16 -20 16 -19 0 -20 -7
-20 -130 0 -121 1 -130 19 -130 17 0 19 10 23 101 2 86 6 103 22 115 24 17 58
18 74 2 8 -8 12 -48 12 -115 0 -96 1 -103 20 -103 19 0 20 7 20 93 0 106 13
137 59 137 45 0 51 -15 51 -127 0 -98 1 -103 21 -103 21 0 21 4 18 115 -4 125
-11 140 -65 151 -24 4 -37 0 -59 -18 l-28 -24 -23 23 c-29 29 -63 29 -98 2z"/>
<path d="M4863 4086 c-41 -18 -63 -62 -63 -123 0 -65 27 -108 79 -124 95 -28
170 62 142 169 -20 73 -91 108 -158 78z m103 -47 c14 -15 19 -36 19 -74 0 -38
-5 -59 -19 -74 -25 -28 -73 -27 -103 1 -32 30 -33 111 -1 145 28 30 78 31 104
2z"/>
<path d="M5160 4093 c-8 -3 -23 -12 -32 -21 -16 -14 -18 -13 -18 1 0 10 -8 17
-20 17 -19 0 -20 -7 -20 -130 0 -121 1 -130 19 -130 17 0 19 10 23 101 3 110
13 129 68 129 44 0 50 -16 50 -127 0 -96 1 -103 20 -103 19 0 20 7 20 109 0
89 -3 113 -17 130 -19 22 -67 34 -93 24z"/>
<path d="M1472 3984 c3 -102 4 -107 31 -130 34 -29 66 -31 100 -4 14 11 28 20
31 20 3 0 6 -9 6 -20 0 -11 7 -20 15 -20 13 0 15 21 15 130 0 123 -1 130 -20
130 -19 0 -20 -7 -20 -93 0 -104 -12 -127 -63 -127 -47 0 -57 22 -57 126 0 89
-1 94 -21 94 -20 0 -21 -4 -17 -106z"/>
<path d="M3630 3850 c0 -13 7 -20 20 -20 13 0 20 7 20 20 0 13 -7 20 -20 20
-13 0 -20 -7 -20 -20z"/>
<path d="M3380 3241 c0 -14 -12 -23 -42 -33 -80 -25 -113 -122 -68 -196 11
-18 40 -42 65 -54 l45 -22 0 -62 c0 -35 -4 -65 -9 -69 -8 -4 -44 32 -53 54 -2
4 -20 6 -40 3 -44 -5 -48 -20 -18 -70 13 -20 38 -41 65 -53 25 -11 46 -24 46
-29 1 -6 3 -14 4 -20 1 -5 3 -14 4 -20 0 -5 10 -10 21 -10 15 0 20 7 20 30 0
25 6 32 44 49 68 30 101 96 85 171 -9 41 -57 88 -100 97 -29 5 -29 6 -29 74 0
72 12 88 31 45 10 -21 16 -24 48 -19 20 3 38 7 40 9 12 11 -40 72 -77 89 -26
12 -42 26 -42 37 0 11 -8 18 -20 18 -13 0 -20 -7 -20 -19z m-1 -146 c-2 -55
-13 -67 -37 -43 -25 25 -7 98 24 98 12 0 15 -12 13 -55z m84 -193 c21 -19 22
-51 1 -80 -29 -42 -44 -28 -44 44 0 68 3 70 43 36z"/>
<path d="M1240 3180 l0 -40 70 0 70 0 0 -205 0 -205 45 0 45 0 0 205 0 205 75
0 75 0 0 40 0 40 -190 0 -190 0 0 -40z"/>
<path d="M2660 2975 l0 -245 45 0 45 0 0 245 0 245 -45 0 -45 0 0 -245z"/>
<path d="M4096 3210 c-39 -12 -63 -36 -76 -76 -15 -43 2 -98 35 -120 l24 -16
-34 -30 c-83 -72 -46 -208 65 -238 64 -17 118 -4 162 40 36 35 38 42 38 98 0
50 -4 66 -26 91 -14 17 -33 31 -42 31 -12 0 -7 8 15 26 58 45 52 138 -10 179
-30 19 -112 28 -151 15z m114 -92 c13 -25 13 -31 0 -55 -17 -31 -70 -43 -96
-22 -20 17 -18 85 4 98 31 19 75 9 92 -21z m-4 -179 c12 -14 19 -36 19 -64 0
-75 -67 -113 -115 -65 -25 25 -27 95 -4 128 20 29 74 30 100 1z"/>
<path d="M4654 3202 c-31 -15 -46 -31 -64 -68 -21 -43 -24 -63 -24 -164 0 -97
3 -122 21 -163 18 -39 31 -51 69 -68 79 -36 146 -13 186 64 20 37 23 56 23
167 0 107 -3 131 -21 164 -40 77 -113 103 -190 68z m94 -70 c20 -14 32 -71 32
-162 0 -129 -16 -169 -67 -170 -44 0 -58 42 -58 170 0 94 3 121 18 143 17 27
49 35 75 19z"/>
<path d="M5055 3213 c-38 -10 -64 -35 -87 -81 -20 -41 -23 -62 -23 -162 0
-104 2 -120 26 -165 20 -40 34 -53 71 -69 133 -55 216 52 206 265 -5 106 -24
158 -70 192 -26 19 -89 30 -123 20z m79 -88 c34 -35 35 -267 1 -305 -26 -28
-61 -25 -82 7 -15 22 -18 49 -18 143 0 94 3 121 18 143 20 30 57 36 81 12z"/>
<path d="M3620 3165 l0 -45 106 0 106 0 -15 -22 c-65 -91 -114 -214 -124 -310
l-6 -58 39 0 39 0 18 90 c19 101 59 198 111 270 36 50 39 59 37 98 -1 22 -2
22 -156 22 l-155 0 0 -45z"/>
<path d="M2093 3178 c-30 -18 -40 -42 -34 -80 0 -5 -10 -8 -24 -8 -22 0 -25
-4 -25 -35 0 -31 3 -35 25 -35 l25 0 0 -123 c0 -137 8 -161 60 -172 17 -4 43
-4 60 0 25 5 30 11 30 36 0 25 -4 29 -29 29 -36 0 -41 15 -41 138 l0 92 35 0
c33 0 35 2 35 35 0 33 -2 35 -35 35 l-35 0 0 55 c0 30 -3 55 -7 54 -5 0 -23
-10 -40 -21z"/>
<path d="M1737 3086 c-50 -19 -76 -42 -98 -91 -53 -115 13 -250 130 -270 154
-26 265 154 180 292 -41 66 -136 97 -212 69z m118 -80 c13 -13 27 -40 30 -60
22 -117 -65 -198 -142 -132 -26 22 -28 30 -28 96 0 66 2 74 28 96 36 31 81 31
112 0z"/>
<path d="M2345 3085 c-22 -8 -41 -15 -42 -15 -5 0 -34 -62 -31 -65 2 -1 19 -5
39 -8 28 -4 38 -1 47 14 9 13 23 19 50 19 46 0 61 -9 64 -39 3 -22 -4 -25 -82
-46 -98 -26 -130 -54 -130 -112 0 -100 112 -147 195 -82 l26 21 6 -21 c4 -17
13 -21 50 -21 39 0 44 2 37 18 -4 9 -10 78 -13 153 -7 154 -14 171 -80 189
-49 13 -88 12 -136 -5z m132 -222 c-7 -44 -38 -73 -76 -73 -33 0 -51 16 -51
46 0 28 17 41 66 53 66 15 67 15 61 -26z"/>
<path d="M2870 3045 l0 -45 45 0 45 0 0 45 0 45 -45 0 -45 0 0 -45z"/>
<path d="M2870 2775 l0 -45 45 0 45 0 0 45 0 45 -45 0 -45 0 0 -45z"/>
<path d="M4400 2775 l0 -45 45 0 45 0 0 45 0 45 -45 0 -45 0 0 -45z"/>
<path d="M1472 1393 c2 -11 14 -19 30 -21 16 -2 28 -11 33 -25 14 -49 47 -174
52 -199 10 -54 27 -59 179 -56 122 3 139 5 142 20 3 16 -10 18 -135 20 -134 3
-138 4 -141 25 -3 22 -2 23 153 25 l157 3 14 40 c7 21 14 57 16 80 l3 40 -198
5 -198 5 -12 25 c-10 20 -21 26 -56 28 -37 3 -42 1 -39 -15z"/>
<path d="M4058 1393 c-16 -2 -44 -23 -66 -48 -32 -36 -40 -55 -46 -99 -11 -96
2 -144 50 -193 43 -42 45 -43 111 -43 81 0 123 21 148 74 14 29 15 39 5 51
-21 26 -64 18 -83 -14 -29 -49 -97 -50 -134 -2 -7 9 -13 44 -13 79 0 72 16
104 61 122 27 12 33 10 69 -19 39 -32 92 -42 106 -20 6 11 -11 54 -31 75 -28
30 -114 48 -177 37z"/>
<path d="M2262 1373 c-5 -10 -19 -45 -31 -78 -34 -88 -38 -101 -68 -175 -6
-14 -16 -38 -22 -53 -20 -50 -15 -58 32 -55 38 3 43 6 53 38 l12 35 73 3 74 2
17 -40 c15 -37 19 -40 57 -40 22 0 42 3 44 8 3 4 -4 27 -15 52 -11 25 -23 54
-28 65 -13 34 -32 79 -41 97 -5 10 -9 22 -9 28 0 6 -9 29 -19 53 -10 23 -21
50 -25 60 -4 13 -16 17 -50 17 -33 0 -48 -5 -54 -17z m71 -135 c3 -13 9 -33
12 -45 7 -21 4 -23 -28 -23 -35 0 -56 13 -38 24 4 3 11 19 14 36 8 35 32 40
40 8z"/>
<path d="M2710 1337 l0 -53 -63 4 c-57 4 -65 2 -89 -23 -31 -30 -34 -46 -30
-133 3 -53 8 -66 34 -92 25 -25 37 -30 78 -30 27 0 52 5 55 10 4 7 12 7 25 0
10 -5 30 -10 44 -10 l26 0 0 190 0 190 -40 0 -40 0 0 -53z m-18 -124 c24 -21
25 -95 1 -123 -38 -45 -83 -11 -83 63 0 69 40 99 82 60z"/>
<path d="M3030 1337 l0 -53 -63 4 c-57 4 -64 2 -90 -23 -25 -26 -31 -41 -30
-90 2 -98 3 -104 33 -134 30 -30 32 -30 130 -29 l100 1 0 189 0 188 -40 0 -40
0 0 -53z m-18 -124 c24 -21 25 -99 1 -125 -38 -42 -83 -8 -83 64 0 72 38 101
82 61z"/>
<path d="M3370 1372 c-26 -8 -50 -34 -50 -54 0 -10 -7 -21 -15 -24 -19 -8 -19
-48 -1 -77 7 -12 16 -57 19 -100 3 -43 11 -85 17 -93 8 -9 31 -14 62 -14 l49
0 -3 33 c-2 17 -8 31 -15 30 -23 -5 -34 26 -31 84 3 49 6 60 26 68 15 7 22 18
22 37 0 20 -6 27 -22 30 -18 2 -24 11 -26 38 -4 40 -11 50 -32 42z"/>
<path d="M4858 1363 c-14 -9 -29 -29 -32 -45 -5 -27 -8 -28 -63 -29 -32 -1
-80 -1 -106 1 l-48 2 3 -139 3 -138 38 -3 37 -3 0 83 c0 65 4 88 19 107 12 16
24 22 35 18 9 -4 26 -1 37 6 32 19 46 -10 48 -105 1 -45 7 -88 13 -95 15 -18
107 -17 114 1 7 19 -13 56 -29 53 -8 -1 -13 20 -15 71 -3 67 -1 74 18 79 28 7
29 63 1 63 -16 0 -20 8 -23 42 -3 48 -13 54 -50 31z"/>
<path d="M3528 1267 c-48 -39 -63 -123 -34 -190 20 -48 55 -67 124 -67 52 0
63 4 98 34 38 33 39 34 39 105 0 69 -1 72 -37 106 -34 32 -41 35 -100 35 -51
0 -68 -5 -90 -23z m128 -58 c37 -42 12 -139 -37 -139 -10 0 -27 12 -39 28 -54
67 19 174 76 111z"/>
<path d="M4336 1257 c-15 -19 -26 -36 -26 -39 0 -15 65 -17 87 -2 29 19 67 15
71 -7 2 -12 -7 -19 -30 -23 -18 -4 -45 -9 -60 -12 -43 -10 -68 -40 -68 -83 0
-54 31 -81 96 -81 28 0 55 5 61 11 8 8 13 8 17 0 4 -6 25 -11 48 -11 38 0 40
2 32 23 -4 12 -9 67 -11 122 -6 128 -12 135 -117 135 -73 0 -76 -1 -100 -33z
m134 -145 c0 -25 -19 -42 -47 -42 -29 0 -40 23 -21 44 19 22 68 21 68 -2z"/>
<path d="M1647 1049 c-8 -29 10 -51 37 -47 16 2 21 10 21 33 0 25 -4 31 -26
33 -20 2 -28 -2 -32 -19z"/>
<path d="M1825 1049 c-5 -13 -2 -27 8 -36 24 -24 59 -8 55 25 -4 36 -53 45
-63 11z"/>
</g>
</svg>
